<svg xmlns="http://www.w3.org/2000/svg" viewBox="0 0 440 120" fill="none">
  <!-- J -->
  <rect x="10" y="10" width="30" height="20" fill="#000"/>
  <rect x="50" y="10" width="30" height="20" fill="#000"/>
  <rect x="50" y="30" width="30" height="60" fill="#000"/>
  <rect x="10" y="70" width="30" height="20" fill="#000"/>
  <rect x="10" y="90" width="70" height="20" fill="#000"/>

  <!-- U -->
  <rect x="100" y="10" width="30" height="80" fill="#000"/>
  <rect x="140" y="10" width="30" height="20" fill="#000"/>
  <rect x="170" y="10" width="30" height="80" fill="#000"/>
  <rect x="100" y="90" width="100" height="20" fill="#000"/>

  <!-- N -->
  <rect x="220" y="10" width="30" height="100" fill="#000"/>
  <rect x="250" y="30" width="30" height="20" fill="#000"/>
  <rect x="280" y="50" width="30" height="20" fill="#000"/>
  <rect x="310" y="70" width="30" height="20" fill="#000"/>
  <rect x="340" y="10" width="30" height="100" fill="#000"/>

  <!-- K -->
  <rect x="390" y="10" width="30" height="100" fill="#000"/>
  <rect x="420" y="10" width="30" height="30" fill="#000"/>
  <rect x="420" y="50" width="30" height="20" fill="#000"/>
  <rect x="420" y="80" width="30" height="30" fill="#000"/>
</svg>
